<?xml version="1.0" encoding="UTF-8" standalone="no"?>
<!-- Created with Inkscape (http://www.inkscape.org/) -->
<svg
   xmlns:dc="http://purl.org/dc/elements/1.1/"
   xmlns:cc="http://web.resource.org/cc/"
   xmlns:rdf="http://www.w3.org/1999/02/22-rdf-syntax-ns#"
   xmlns:svg="http://www.w3.org/2000/svg"
   xmlns="http://www.w3.org/2000/svg"
   xmlns:sodipodi="http://sodipodi.sourceforge.net/DTD/sodipodi-0.dtd"
   xmlns:inkscape="http://www.inkscape.org/namespaces/inkscape"
   id="svg2413"
   sodipodi:version="0.32"
   inkscape:version="0.45.1"
   width="2655"
   height="581"
   version="1.0"
   sodipodi:docbase="C:\Users\Chris\Desktop\SVGs"
   sodipodi:docname="BBC One logo.svg"
   inkscape:output_extension="org.inkscape.output.svg.inkscape">
  <metadata
     id="metadata2418">
    <rdf:RDF>
      <cc:Work
         rdf:about="">
        <dc:format>image/svg+xml</dc:format>
        <dc:type
           rdf:resource="http://purl.org/dc/dcmitype/StillImage" />
      </cc:Work>
    </rdf:RDF>
  </metadata>
  <defs
     id="defs2416" />
  <sodipodi:namedview
     inkscape:window-height="974"
     inkscape:window-width="1280"
     inkscape:pageshadow="2"
     inkscape:pageopacity="0.0"
     guidetolerance="10.0"
     gridtolerance="10.0"
     objecttolerance="10.0"
     borderopacity="1.0"
     bordercolor="#666666"
     pagecolor="#ffffff"
     id="base"
     inkscape:zoom="0.25612053"
     inkscape:cx="1329.6704"
     inkscape:cy="-22.75906"
     inkscape:window-x="-8"
     inkscape:window-y="-8"
     inkscape:current-layer="svg2413" />
  <rect
     style="opacity:1;fill:#ffffff;fill-opacity:1;stroke-width:0;stroke-miterlimit:4;stroke-dasharray:none"
     id="rect2425"
     width="909.72797"
     height="304.54413"
     x="39.044117"
     y="10.955882" />
  <rect
     style="opacity:1;fill:#ffffff;fill-opacity:1;stroke-width:0;stroke-miterlimit:4;stroke-dasharray:none"
     id="rect2427"
     width="1628.1398"
     height="554.42645"
     x="1009.2904"
     y="10.955857" />
  <path
     style="fill:#bdbdbd;fill-opacity:1"
     d="M 0,290.5 L 0,0 L 1327.5,0 L 2655,0 L 2655,290.5 L 2655,581 L 1327.5,581 L 0,581 L 0,290.5 z M 1340,543.53794 C 1395.8309,534.78861 1440.6155,513.60725 1476.3943,479.0288 C 1518.0087,438.81039 1541.9443,389.29659 1550.6119,325.5 C 1552.8386,309.11076 1553.1401,267.7815 1551.1517,251.5 C 1543.3169,187.34516 1518.406,134.6197 1477.0666,94.694607 C 1429.1215,48.389876 1364.3312,25.053119 1290,27.315352 C 1231.0723,29.108787 1179.1619,47.262173 1136.5,80.995232 C 1113.1242,99.478633 1088.694,129.79391 1074.5873,157.8224 C 1036.5621,233.37411 1035.9047,335.75541 1072.9585,411.5 C 1085.6678,437.48016 1098.4511,455.45849 1118.4898,475.53454 C 1159.0541,516.17468 1209.5006,538.75933 1274.5,545.37958 C 1284.4815,546.39621 1329.9119,545.11885 1340,543.53794 z M 1277.6165,451.90248 C 1241.6794,448.11214 1213.2438,435.35126 1191,413.03215 C 1169.0929,391.05086 1156.4372,363.62792 1150.3731,325 C 1147.8124,308.68826 1147.7846,265.52432 1150.3239,248.60609 C 1152.5035,234.08432 1156.8203,217.02184 1160.9359,206.66148 C 1176.2217,168.18162 1204.079,141.49412 1242.3843,128.63332 C 1269.3418,119.58247 1307.9576,117.71565 1338.4478,123.98926 C 1397.9497,136.23225 1435.9376,177.64646 1446.9695,242.29906 C 1451.3629,268.04654 1451.3623,304.65578 1446.968,330.70178 C 1434.9717,401.8076 1390.0427,444.72355 1320,451.981 C 1308.9263,453.1284 1288.8877,453.09128 1277.6165,451.90248 z M 2427,543.04433 C 2485.3808,535.31935 2536.0899,517.81183 2576.947,491.27449 C 2587.8202,484.21221 2599,475.86904 2599,474.81702 C 2599,474.36509 2590.6088,458.49989 2580.353,439.561 L 2561.7059,405.12668 L 2556.1902,408.65504 C 2480.967,456.77475 2370.3962,469.84236 2304.1174,438.4458 C 2262.8039,418.87541 2238.7621,384.92442 2229.6247,333.25 L 2229.05,330 L 2422.0059,330 L 2614.9619,330 L 2615.4873,327.75 C 2618.4637,315.0043 2619.8006,280.03016 2618.0962,259.5 C 2615.6778,230.3705 2611.7476,210.39461 2603.5078,185.35305 C 2577.8355,107.33234 2520.849,54.419997 2441.5,34.927699 C 2418.0461,29.166178 2404.3189,27.659936 2374.5,27.576001 C 2346.8177,27.498079 2339.3458,28.111991 2319,32.136063 C 2232.8731,49.170556 2166.4016,108.12033 2138.5476,192.16885 C 2125.6699,231.02702 2120.7134,272.0514 2124.0095,312.5 C 2131.2295,401.101 2170.8346,469.87089 2238,510.43181 C 2269.6722,529.55856 2302.1378,539.78144 2349,545.38395 C 2350.925,545.61409 2365.55,545.67307 2381.5,545.51501 C 2404.333,545.28874 2414.0088,544.76334 2427,543.04433 z M 2229.3354,243.06492 C 2231.6219,221.18897 2240.5346,196.62842 2253.1281,177.5 C 2260.4187,166.42607 2277.2891,149.74467 2288.781,142.24631 C 2304.5341,131.96761 2323.1007,124.91203 2343.9881,121.26687 C 2358.4954,118.73513 2391.6567,119.06381 2407.5,121.89636 C 2436.3873,127.061 2458.2312,137.3293 2476.6935,154.42256 C 2498.6794,174.77812 2512.7222,205.78136 2514.663,238.25 L 2515.3056,249 L 2372.0103,249 L 2228.7151,249 L 2229.3354,243.06492 z M 1699,410.14522 C 1699,334.59944 1699.3979,282.32474 1700.0332,274.39522 C 1704.0901,223.76052 1716.9981,191.10685 1743.5,164.4364 C 1771.6702,136.08706 1809.5567,122.62792 1856.5,124.29328 C 1894.1238,125.62802 1920.3588,135.97467 1941.014,157.62425 C 1957.2314,174.62234 1966.8723,194.48559 1972.4991,222.4931 C 1976.6108,242.95948 1977.0166,252.34535 1977.5576,339.5 C 1978.2625,453.05044 1980.1514,489.91312 1987.1781,527.25 L 1988.2602,533 L 2036.9538,533 L 2085.6474,533 L 2083.8224,521.75 C 2081.9277,510.07039 2079.8509,491.19695 2077.9079,468 C 2077.2305,459.91202 2076.4649,410.40203 2075.9983,344.5 C 2075.2284,235.76235 2074.9614,227.42633 2071.4505,202.5 C 2066.2168,165.34209 2053.7358,131.49944 2036.2528,107.06056 C 2021.8831,86.973771 1998.076,65.305119 1977.5596,53.639508 C 1926.1141,24.387644 1856.4472,18.820816 1797,39.211636 C 1775.4462,46.604752 1755.7263,57.490209 1738.4042,71.556738 C 1727.5382,80.38052 1711.4076,96.919265 1704.5571,106.2602 C 1701.8386,109.96709 1699.3487,113 1699.0241,113 C 1698.6995,113 1697.896,107.9375 1697.2386,101.75 C 1695.3661,84.12677 1691.3251,62.181523 1686.9267,45.75 L 1685.9229,42 L 1638.1057,42 L 1590.2885,42 L 1591.5479,49.25 C 1595.8127,73.800586 1598.6644,107.29144 1599.998,148.48731 C 1600.5324,164.99429 1600.9764,258.2625 1600.9848,355.75 L 1601,533 L 1650,533 L 1699,533 L 1699,410.14522 z M 304,165 L 304,41 L 172,41 L 40,41 L 40,165 L 40,289 L 172,289 L 304,289 L 304,165 z M 109,165.5 L 109,76 L 143.84004,76 C 175.26241,76 179.43776,76.193783 186.40399,77.975445 C 208.94233,83.739782 223.50203,99.432171 224.73685,119.29045 C 225.7857,136.15796 219.88227,148.34796 206.59532,156.75096 L 202.69063,159.22038 L 207.70692,160.98693 C 220.58884,165.52346 231.20803,174.59525 236.74082,185.79009 C 240.43342,193.26156 240.5,193.60179 240.5,205 C 240.5,216.37932 240.42796,216.74949 236.77503,224.1407 C 228.54499,240.79305 214.1215,250.07064 191.05757,253.54744 C 184.08531,254.59848 171.69444,254.9898 145.25,254.9941 L 109,255 L 109,165.5 z M 182.39208,225.96414 C 199.07054,223.55328 208,215.26574 208,202.19712 C 208,193.93053 204.96451,188.4609 198.06975,184.30385 C 189.76601,179.29729 181.94235,178 160.05259,178 L 141,178 L 141,202.5 L 141,227 L 158.25,226.98019 C 167.7375,226.9693 178.60143,226.51207 182.39208,225.96414 z M 170.14398,148.55705 C 186.23393,145.1467 192.84318,137.33354 191.80296,122.95273 C 191.23044,115.03774 188.09673,110.40726 181.08857,107.12077 C 175.85385,104.66594 174.40777,104.47894 158.25,104.1674 L 141,103.83479 L 141,126.9174 L 141,150 L 152.25,149.98264 C 158.4375,149.97309 166.48979,149.33157 170.14398,148.55705 z M 609,165 L 609,41 L 476.5,41 L 344,41 L 344,165 L 344,289 L 476.5,289 L 609,289 L 609,165 z M 414,165.58641 L 414,76 L 448.25,76.017364 C 486.86844,76.036942 491.45851,76.582665 503.64306,82.603169 C 522.03222,91.689423 532.02062,109.96955 529.05174,129.10447 C 528.43011,133.11098 527.07099,138.31175 526.03148,140.66174 C 523.7359,145.85128 516.3228,153.97268 511.52106,156.55859 C 507.88554,158.51645 506.96436,160 509.3842,160 C 512.73165,160 527.10429,168.35822 532.23649,173.28943 C 543.54231,184.15251 548.48662,201.07211 544.60987,215.63161 C 539.78073,233.76795 525.5057,246.53023 503.74034,252.17014 C 496.14789,254.13751 492.29607,254.3395 454.75,254.73911 L 414,255.17282 L 414,165.58641 z M 495.34621,224.07848 C 512.26696,218.59591 518.53,200.64579 507.79013,188.41375 C 500.74421,180.38889 491.02704,178.0417 464.75,178.01736 L 446,178 L 446,202.61169 L 446,227.22338 L 467.25,226.76007 C 485.66622,226.35853 489.41297,226.00093 495.34621,224.07848 z M 479.34705,147.66213 C 491.09326,143.96695 496.54354,136.73381 496.4233,125 C 496.34782,117.63339 494.63997,113.55774 489.9885,109.64377 C 484.79205,105.27125 478.33418,104 461.3185,104 L 446,104 L 446,127.13788 L 446,150.27576 L 460.25,149.73135 C 468.71659,149.40789 476.46719,148.56808 479.34705,147.66213 z M 913,165 L 913,41 L 781,41 L 649,41 L 649,165 L 649,289 L 781,289 L 913,289 L 913,165 z M 773.20841,255.99829 C 737.1598,250.92073 708.46471,229.88098 695.42713,198.96767 C 687.60464,180.41985 686.80146,158.88182 693.19086,139 C 703.39151,107.25871 731.54997,83.142965 766.6258,76.108107 C 793.10966,70.796468 816.50525,73.13522 847.75,84.217731 L 859,88.208104 L 859,104.60405 C 859,113.62182 858.83033,121 858.62295,121 C 858.41558,121 853.12808,118.56505 846.87295,115.58899 C 824.63494,105.00861 809.3672,101.48778 789,102.24314 C 778.33728,102.63859 775.11163,103.17607 767.05421,105.8999 C 754.87393,110.01747 747.1066,114.7455 738.86645,123.05801 C 727.69671,134.32584 721.98736,148.69167 722.01478,165.4601 C 722.04389,183.26409 727.52037,196.84097 739.37817,208.50614 C 752.68491,221.5967 770.2209,228.09792 792.5,228.2003 C 812.24349,228.29103 828.8445,223.87151 849.75,212.95921 L 861,207.08691 L 861,223.89542 L 861,240.70392 L 854.15642,243.85833 C 835.40144,252.50306 819.6247,255.96032 796.5,256.49293 C 787.15,256.70829 776.66879,256.4857 773.20841,255.99829 z "
     id="path2422" />
</svg>
