<?xml version="1.0" encoding="UTF-8" standalone="no"?>
<!-- Created with Inkscape (http://www.inkscape.org/) -->
<svg
   xmlns:dc="http://purl.org/dc/elements/1.1/"
   xmlns:cc="http://web.resource.org/cc/"
   xmlns:rdf="http://www.w3.org/1999/02/22-rdf-syntax-ns#"
   xmlns:svg="http://www.w3.org/2000/svg"
   xmlns="http://www.w3.org/2000/svg"
   xmlns:xlink="http://www.w3.org/1999/xlink"
   xmlns:sodipodi="http://sodipodi.sourceforge.net/DTD/sodipodi-0.dtd"
   xmlns:inkscape="http://www.inkscape.org/namespaces/inkscape"
   width="152"
   height="165"
   id="svg2"
   sodipodi:version="0.32"
   inkscape:version="0.45.1"
   version="1.0"
   inkscape:output_extension="org.inkscape.output.svg.inkscape">
  <g
     inkscape:label="Layer 1"
     inkscape:groupmode="layer"
     id="layer1"
     transform="translate(-36.474588,-698.87353)">
    <g
       clip-path="url(#id3060)"
       id="g56805"
       transform="matrix(19.663648,0,0,-19.663648,-14659.664,3849.4435)">
      <path
         style="fill:#0095d9;fill-rule:nonzero;stroke:none"
         d="M 755.107,155.695 C 755.107,153.561 753.375,151.832 751.24,151.832 C 749.107,151.832 747.376,153.561 747.376,155.695 L 755.107,155.695 z "
         id="path56807" />
      <path
         style="fill:#0095d9;fill-rule:nonzero;stroke:none"
         d="M 747.415,159.353 L 747.415,160.223 L 748.229,160.223 L 748.229,159.474 L 748.865,159.474 L 748.865,158.921 L 748.229,158.921 L 748.229,157.385 C 748.229,157.114 748.339,157.047 748.614,157.047 C 748.698,157.047 748.779,157.053 748.865,157.071 L 748.865,156.448 C 748.729,156.426 748.51,156.42 748.349,156.42 C 747.851,156.42 747.415,156.552 747.415,157.13 L 747.415,158.82 L 747.415,159.353 z "
         id="path56809" />
      <path
         style="fill:#0095d9;fill-rule:nonzero;stroke:none"
         d="M 753.132,157.467 C 753.138,157.109 753.429,156.965 753.743,156.965 C 753.972,156.965 754.263,157.058 754.263,157.347 C 754.263,157.594 753.933,157.682 753.362,157.807 C 752.904,157.911 752.445,158.078 752.445,158.604 C 752.445,159.365 753.083,159.561 753.704,159.561 C 754.336,159.561 754.917,159.342 754.979,158.609 L 754.224,158.609 C 754.201,158.926 753.966,159.014 753.681,159.014 C 753.502,159.014 753.239,158.978 753.239,158.737 C 753.239,158.443 753.687,158.401 754.14,158.291 C 754.605,158.183 755.057,158.009 755.057,157.456 C 755.057,156.671 754.397,156.417 753.737,156.417 C 753.066,156.417 752.411,156.677 752.377,157.467 L 753.132,157.467 z "
         id="path56811" />
      <path
         style="fill:#0095d9;fill-rule:nonzero;stroke:none"
         d="M 751.266,157.328 C 751.156,157.109 750.969,156.961 750.69,156.961 C 750.413,156.961 750.224,157.109 750.114,157.328 C 750.035,157.487 749.998,157.764 749.998,157.968 C 749.998,158.174 750.035,158.45 750.114,158.61 C 750.224,158.829 750.413,158.998 750.69,158.998 C 750.969,158.998 751.156,158.829 751.266,158.61 C 751.345,158.45 751.382,158.174 751.383,157.968 C 751.382,157.764 751.345,157.487 751.266,157.328 M 752.195,157.972 C 752.195,158.475 752.052,158.864 751.839,159.114 C 751.72,159.27 751.39,159.551 750.864,159.551 C 750.864,159.551 750.817,159.552 750.794,159.552 C 750.484,159.552 750.161,159.419 749.993,159.165 L 749.992,160.213 L 749.184,160.213 L 749.184,158.21 L 749.185,158.108 L 749.185,157.965 C 749.185,157.482 749.317,157.123 749.516,156.874 C 749.612,156.743 749.738,156.643 749.883,156.57 C 749.983,156.518 750.087,156.482 750.192,156.461 C 750.352,156.423 750.524,156.407 750.697,156.407 C 751.166,156.407 751.633,156.531 751.865,156.875 C 752.064,157.124 752.195,157.483 752.195,157.965 L 752.195,157.968 L 752.195,157.972 z "
         id="path56813" />
      <path
         style="fill:#0095d9;fill-rule:nonzero;stroke:none"
         d="M 754.471,152.104 L 754.682,152.104 L 754.682,152.065 L 754.599,152.065 L 754.599,151.843 L 754.554,151.843 L 754.554,152.065 L 754.471,152.065 L 754.471,152.104 z "
         id="path56815" />
      <path
         style="fill:#0095d9;fill-rule:nonzero;stroke:none"
         d="M 754.712,152.104 L 754.776,152.104 L 754.849,151.9 L 754.849,151.9 L 754.919,152.104 L 754.983,152.104 L 754.983,151.843 L 754.94,151.843 L 754.94,152.045 L 754.939,152.045 L 754.866,151.843 L 754.829,151.843 L 754.756,152.045 L 754.756,152.045 L 754.756,151.843 L 754.712,151.843 L 754.712,152.104 z "
         id="path56817" />
    </g>
  </g>
</svg>
